<?xml version="1.0" encoding="UTF-8" standalone="no"?>
<!DOCTYPE svg PUBLIC "-//W3C//DTD SVG 1.1//EN" "http://www.w3.org/Graphics/SVG/1.1/DTD/svg11.dtd">
<svg width="100%" height="100%" viewBox="0 0 82 100" version="1.1" xmlns="http://www.w3.org/2000/svg" xmlns:xlink="http://www.w3.org/1999/xlink" xml:space="preserve" xmlns:serif="http://www.serif.com/" style="fill-rule:evenodd;clip-rule:evenodd;stroke-linecap:round;stroke-linejoin:round;stroke-miterlimit:1.5;">
    <g transform="matrix(1.32815,0,0,1.32815,-51.905,-16.1754)">
        <g transform="matrix(1,0,0,1,2.62777,0)">
            <g transform="matrix(-0.924567,-0.381019,0.381019,-0.924567,116.609,112.579)">
                <path d="M87.584,42.111C93.454,41.338 97.805,36.536 96.026,29.519" style="fill:none;stroke:rgb(70,106,33);stroke-width:1.51px;"/>
            </g>
            <g transform="matrix(-2.42738,-1.00033,1.00033,-2.42738,249.97,211.674)">
                <circle cx="97.811" cy="26.453" r="0.745" style="fill:rgb(70,106,33);"/>
            </g>
            <g transform="matrix(-0.924567,-0.381019,0.381019,-0.924567,116.609,112.579)">
                <path d="M93.543,28.694C93.839,29.142 94.928,30.159 95.797,30.192" style="fill:none;stroke:rgb(70,106,33);stroke-width:0.75px;"/>
            </g>
        </g>
        <g transform="matrix(1,0,0,1,2.62777,0)">
            <path d="M87.584,42.111C93.454,41.338 97.805,36.536 96.026,29.519" style="fill:none;stroke:rgb(70,106,33);stroke-width:1.51px;"/>
            <g transform="matrix(2.62542,0,0,2.62542,-161.058,-40.8071)">
                <circle cx="97.811" cy="26.453" r="0.745" style="fill:rgb(70,106,33);"/>
            </g>
            <path d="M93.543,28.694C93.839,29.142 94.928,30.159 95.797,30.192" style="fill:none;stroke:rgb(70,106,33);stroke-width:0.75px;"/>
        </g>
        <g transform="matrix(0.946635,0,0,1,3.73558,0)">
            <g transform="matrix(1,0,0,0.860428,20,5.18797)">
                <path d="M50,94C42,94 31.254,91.264 26,71C21.374,53.16 31.721,43.587 34,32C38.498,9.128 42.907,9.48 50,9L50.331,9.022C57.231,9.475 61.573,9.486 66,32C68.279,43.587 78.626,53.16 74,71C68.662,91.586 58,94 50,94Z" style="fill:rgb(228,226,125);stroke:rgb(87,132,41);stroke-width:1.66px;"/>
            </g>
            <g transform="matrix(0.897776,0,0,0.772471,25.1112,9.71772)">
                <path d="M50,94C42,94 31.254,91.264 26,71C21.374,53.16 31.721,43.587 34,32C38.498,9.128 42.907,9.48 50,9L50.331,9.022C57.231,9.475 61.573,9.486 66,32C68.279,43.587 78.626,53.16 74,71C68.662,91.586 58,94 50,94Z" style="fill:rgb(238,237,147);"/>
            </g>
        </g>
        <g transform="matrix(0.849137,0,0,0.849137,10.5604,9.5044)">
            <g transform="matrix(0.772059,0,0,0.9375,43.75,3)">
                <circle cx="34" cy="64" r="16" style="fill:rgb(99,42,17);"/>
            </g>
            <g transform="matrix(0.772059,0,0,0.9375,43.75,3)">
                <path d="M34,48C42.831,48 50,55.169 50,64C50,68.651 48.011,72.841 44.838,75.766C39.228,80.937 28.647,76.189 23.436,68.446C19.506,62.607 19.64,55.853 22.471,52.911C25.382,49.884 29.473,48 34,48Z" style="fill:rgb(117,56,27);"/>
            </g>
            <g transform="matrix(0.527759,0,0,0.640851,52.5992,21.6127)">
                <path d="M34,48C42.831,48 50,55.169 50,64C50,67.932 48.681,71.625 46.221,74.322C35.344,86.249 13.03,61.451 26.803,49.708C28.648,48.136 31.412,48 34,48Z" style="fill:rgb(145,74,44);"/>
            </g>
        </g>
        <g transform="matrix(0.666667,0,0,0.58724,21.6623,9.78711)">
            <ellipse cx="66" cy="22.5" rx="3" ry="3.5" style="fill:rgb(25,25,25);stroke:rgb(0,79,5);stroke-width:0.18px;"/>
        </g>
        <g transform="matrix(0.666667,0,0,0.58724,30.502,9.78711)">
            <ellipse cx="66" cy="22.5" rx="3" ry="3.5" style="fill:rgb(25,25,25);stroke:rgb(0,79,5);stroke-width:0.18px;"/>
        </g>
        <g transform="matrix(0.174774,0,0,0.224709,54.6995,17.3334)">
            <ellipse cx="66" cy="22.5" rx="3" ry="3.5" style="fill:white;"/>
        </g>
        <g transform="matrix(0.174774,0,0,0.224709,63.5392,17.3334)">
            <ellipse cx="66" cy="22.5" rx="3" ry="3.5" style="fill:white;"/>
        </g>
        <g transform="matrix(1,0,0,1,1.47603,1)">
            <path d="M64.613,28C65.432,31.22 71.14,31.827 72.435,28" style="fill:none;stroke:rgb(25,25,25);stroke-width:0.6px;"/>
        </g>
        <g transform="matrix(0.54708,0.26302,-0.26302,0.54708,45.1044,-6.01871)">
            <path d="M66.338,30.466C66.95,31.427 68.35,31.365 69.196,30.282" style="fill:none;stroke:rgb(25,25,25);stroke-width:0.99px;"/>
        </g>
        <g transform="matrix(-0.54708,0.26302,0.26302,0.54708,94.9489,-6.01871)">
            <path d="M66.338,30.466C66.95,31.427 68.35,31.365 69.196,30.282" style="fill:none;stroke:rgb(25,25,25);stroke-width:0.99px;"/>
        </g>
    </g>
</svg>
