<?xml version="1.0" encoding="UTF-8" standalone="no"?><!DOCTYPE svg PUBLIC "-//W3C//DTD SVG 1.1//EN" "http://www.w3.org/Graphics/SVG/1.1/DTD/svg11.dtd"><svg width="100%" height="100%" viewBox="0 0 126 42" version="1.1" xmlns="http://www.w3.org/2000/svg" xmlns:xlink="http://www.w3.org/1999/xlink" xml:space="preserve" xmlns:serif="http://www.serif.com/" style="fill-rule:evenodd;clip-rule:evenodd;stroke-linejoin:round;stroke-miterlimit:1.41421;"><path d="M125.242,3.028c0,0 0.944,-2.359 -6.941,-2.258c-5.499,0.07 -10.998,0.098 -16.498,0.127c-9.968,0.052 -20.144,-0.884 -30.112,-0.896c-11.174,-0.014 -20.901,0.195 -32.006,0.401c-0.433,0.008 -2.002,0.416 -2.436,0.423c-0.948,0.015 -2.182,-0.453 -3.13,-0.438c-4.363,0.067 -8.727,0.132 -13.094,0.185c-2.757,0.033 -5.494,0.545 -8.255,0.565c-3.609,0.028 -7.237,-0.32 -10.857,-0.421c-1.568,-0.043 -1.785,1.674 -1.819,2.486c-0.066,1.614 -0.092,4.624 -0.094,8.274c0,0.147 1.479,1.572 1.479,1.572c0,0 -1.476,1.13 -1.476,1.258c0.003,1.257 0.308,2.443 0.315,3.767c0.005,1.021 -0.288,2.17 -0.281,3.205c0.009,1.298 0.418,2.637 0.429,3.916c0.007,0.866 -0.384,1.683 -0.376,2.523c0.01,1.076 0.02,2.126 0.03,3.133c0.009,0.914 0.019,1.793 0.028,2.627c0.011,0.993 0.021,1.922 0.031,2.768c0.052,4.39 2.606,5.069 2.606,5.069c5.026,-0.226 10.304,1.042 15.082,-0.529c2.694,-0.886 5.358,-1.005 7.986,-0.17c3.023,0.961 6.535,-0.413 9.654,-0.051c10.99,1.275 22.207,1.456 33.522,1.278c1.06,-0.017 2.197,-1.757 3.259,-1.779c1.096,-0.023 2.116,1.671 3.212,1.643c11.041,-0.281 21.939,-1.388 33.001,-1.41c5.527,-0.011 11.254,0.712 16.741,1.018l0,-3.253c-0.326,-4.567 -0.03,-9.509 -0.681,-13.859c-0.594,-3.963 0.172,-8.099 0.681,-12.357l0,-8.817Z" style="fill:url(#_Linear1);"/><path d="M0.09,27.717c0.01,1.076 7.436,-1.093 7.436,-1.093c0,0 -7.066,-2.116 -7.06,-1.43c0.007,0.866 -0.384,1.683 -0.376,2.523Z" style="fill:#723509;"/><path d="M0.318,18.073c0.005,1.021 23.346,-2.127 23.346,-2.127l-10.061,-2.298l-12.124,-0.6c0,0 -1.476,1.13 -1.476,1.258c0.003,1.257 0.308,2.443 0.315,3.767Z" style="fill:#723509;"/><path d="M125.242,11.845l-15.824,3.311l-5.487,5.165c0,0 0.067,-1.69 9.818,0.554c6.211,1.43 11.065,5.02 10.812,3.327c-0.594,-3.963 0.172,-8.099 0.681,-12.357Z" style="fill:#723509;"/><path d="M35.326,14.647l-1.877,-3.109l3.054,0c1.139,0 2.227,0.06 3.263,0.182c1.037,0.121 1.952,0.392 2.745,0.812c0.794,0.42 1.424,1.041 1.891,1.863c0.467,0.822 0.701,1.923 0.701,3.305c0,0.822 -0.164,1.588 -0.491,2.297c-0.326,0.71 -0.765,1.326 -1.316,1.849c-0.551,0.523 -1.191,0.929 -1.919,1.219c-0.728,0.289 -1.494,0.434 -2.297,0.434l-2.185,-0.056c-0.075,0.915 -0.108,1.83 -0.098,2.745c0.009,0.915 0.004,1.83 -0.014,2.746l-4.09,-0.084l2.213,-2.914l-1.569,-3.473l2.185,-2.129l-2.213,-3.11l1.905,-2.409c0.019,0.019 0.042,0.005 0.07,-0.042c0.028,-0.047 0.042,-0.079 0.042,-0.098l0,-0.028Zm2.997,5.939l-0.308,-0.308l-0.308,0.308l0.308,0.308l0.308,-0.308Zm4.202,-1.009l-0.308,-0.308l-0.308,0.308l0.308,0.308l0.308,-0.308Zm-0.812,-4.37l0.308,0.308l0.308,-0.308l-0.308,-0.308l-0.308,0.308Zm-4.258,-0.7l0.308,0.308l0.308,-0.308l-0.308,-0.308l-0.308,0.308Zm-0.616,3.698l3.389,0.084l0.028,-1.149l-3.389,-0.084l-0.028,1.149Zm0.364,-0.869l2.633,0.056l-2.269,0.28l-0.42,0.28l0.056,-0.616Zm-5.322,11.514l-0.897,-0.028l0.336,-17.312l1.541,0.028l1.821,3.025l-2.017,2.549l2.213,3.11l-2.185,2.129l1.541,3.389l-2.353,3.11Zm0.868,-4.314l0.308,0.308l0.308,-0.308l-0.308,-0.309l-0.308,0.309Zm0.168,-4.623l0.308,0.309l0.308,-0.309l-0.308,-0.308l-0.308,0.308Zm0.168,-5.49l0.308,0.308l0.308,-0.308l-0.308,-0.308l-0.308,0.308Zm11.681,0.196c0.411,0.579 0.715,1.2 0.911,1.863c0.196,0.663 0.294,1.34 0.294,2.031c0,0.896 -0.177,1.732 -0.532,2.507c-0.355,0.775 -0.836,1.447 -1.443,2.017c-0.607,0.569 -1.312,1.018 -2.115,1.344c-0.803,0.327 -1.643,0.491 -2.521,0.491l-1.345,-0.056l-0.168,5.574l-6.051,-0.56l-0.336,-0.336l0.785,0c0.84,0 1.662,0.009 2.465,0.028c0.803,0.019 1.625,0.037 2.465,0.056l0.112,-4.762l0.028,0l-0.028,0l0.028,-0.785c1.027,-0.018 2.031,-0.126 3.011,-0.322c0.981,-0.196 1.854,-0.527 2.62,-0.994c0.765,-0.467 1.382,-1.102 1.848,-1.905c0.467,-0.803 0.701,-1.83 0.701,-3.082c0,-0.541 -0.056,-1.073 -0.168,-1.596c-0.112,-0.523 -0.299,-1.027 -0.561,-1.513Z" style="fill:#dfe002;fill-rule:nonzero;"/><path d="M56.84,25.936c-0.075,0.019 -0.145,0.047 -0.21,0.084c-0.065,0.038 -0.107,0.094 -0.126,0.168l0.28,0.336l0.336,-0.252l0,-0.028c0,-0.074 -0.032,-0.135 -0.098,-0.182c-0.065,-0.046 -0.126,-0.088 -0.182,-0.126Zm-2.969,-0.14l-0.336,0.252l0.28,0.336l0.336,-0.252l-0.28,-0.336Zm-4.202,-8.712l2.101,-2.493l-1.849,-3.194l3.642,0.169l-0.477,11.541l5.883,0.196l-0.252,5.771l-9.973,-0.393l2.297,-2.857l-1.484,-3.529l2.241,-2.073l-2.129,-3.138Zm4.342,-4.566l1.064,1.429l-0.896,8.628l-0.7,-0.028l0.532,-10.029Zm-4.202,7.283l-0.28,-0.336l-0.336,0.252l0.28,0.336l0.336,-0.252Zm-0.56,4.286l-0.337,0.28l0.281,0.309l0.336,-0.253l-0.28,-0.336Zm0.588,-10.112l-0.336,0.28l0.28,0.336l0.336,-0.28l-0.28,-0.336Zm-1.877,14.678l-0.924,-0.056l0.784,-17.284l1.513,0.056l1.764,3.082l-2.073,2.493l2.129,3.165l-2.241,2.073l1.457,3.446l-2.409,3.025Zm0.196,1.373l-0.784,-0.84c1.979,0.037 3.945,0.102 5.896,0.196c1.952,0.093 3.918,0.187 5.897,0.28l0.224,-5.659l0.533,0.729l0.028,5.854l-11.794,-0.56Z" style="fill:#dfe002;fill-rule:nonzero;"/><path d="M73.06,29.634l5.21,0l-1.821,-17.06l1.093,1.233l1.148,16.583l-4.93,-0.112l-0.7,-0.644Zm-4.37,-6.695l0.896,-3.698l0.364,1.177l-1.26,2.521Zm-1.373,4.398l4.37,-0.056l-4.034,0.504l-0.112,2.493c-0.299,-0.018 -0.733,-0.032 -1.303,-0.042c-0.569,-0.009 -1.157,-0.028 -1.764,-0.056c-0.607,-0.028 -1.177,-0.084 -1.709,-0.168c-0.532,-0.084 -0.901,-0.201 -1.107,-0.35l5.183,0.056l0.476,-2.381Zm2.213,-9.777l-1.569,5.883l3.138,0l-1.569,-5.883Zm-4.678,5.491l2.577,-1.905l-1.569,-3.614l2.465,-2.353l-1.148,-3.277l8.544,0l2.185,17.312l-5.267,0l-0.616,-2.297l-4.986,0l-0.588,2.297l-2.998,0l2.297,-2.241l-0.896,-3.922Zm1.961,-2.101l-2.577,1.877l0.868,3.838l-2.577,2.549l-1.877,0l3.501,-17.312l2.494,0l1.064,3.053l-2.465,2.381l1.569,3.614Zm4.146,-7.283l-0.309,-0.309l-0.308,0.28l0.308,0.337l0.309,-0.308Zm2.353,3.921l-0.308,-0.308l-0.309,0.28l0.309,0.336l0.308,-0.308Zm1.064,3.81l-0.308,-0.308l-0.308,0.28l0.308,0.336l0.308,-0.308Zm1.093,5.295l-0.308,-0.309l-0.309,0.281l0.309,0.336l0.308,-0.308Zm-5.715,-1.485l-0.308,-0.308l-0.308,0.28l0.308,0.336l0.308,-0.308Zm-3.558,-10.393l-0.308,-0.308l-0.308,0.28l0.308,0.336l0.308,-0.308Zm-1.428,5.883l-0.308,-0.308l-0.309,0.28l0.309,0.336l0.308,-0.308Zm-1.289,5.098l-0.308,-0.308l-0.308,0.28l0.308,0.336l0.308,-0.308Z" style="fill:#dfe002;fill-rule:nonzero;"/><path d="M83.873,29.354l5.798,0.196c0.187,-1.606 0.341,-2.932 0.463,-3.978c0.121,-1.046 0.242,-1.947 0.364,-2.703c0.121,-0.757 0.256,-1.429 0.406,-2.017c0.149,-0.588 0.355,-1.242 0.616,-1.961c0.262,-0.719 0.593,-1.559 0.995,-2.521c0.401,-0.962 0.919,-2.19 1.554,-3.684l0.224,0.952c-0.578,1.457 -1.05,2.666 -1.414,3.628c-0.364,0.962 -0.663,1.802 -0.897,2.521c-0.233,0.719 -0.415,1.387 -0.546,2.003c-0.131,0.617 -0.238,1.303 -0.322,2.059c-0.084,0.757 -0.168,1.644 -0.252,2.661c-0.084,1.018 -0.192,2.302 -0.322,3.852l-6.247,-0.56l-0.42,-0.448Zm2.381,-17.48l0.448,1.204l-0.252,0.308l-0.813,-1.652l0.617,0.14Zm3.669,2.241l-0.308,0.308l0.308,0.308l0.309,-0.308l-0.309,-0.308Zm-1.848,3.641l-0.309,0.281c0,0.093 0.033,0.158 0.098,0.196c0.066,0.037 0.136,0.074 0.211,0.112c0.074,-0.038 0.144,-0.075 0.21,-0.112c0.065,-0.038 0.098,-0.103 0.098,-0.196l-0.308,-0.281Zm-4.37,-5.126l-1.205,-1.205l2.493,0.056l1.429,2.522l1.484,-2.493l6.107,0.112c-0.093,0.205 -0.252,0.555 -0.476,1.05c-0.224,0.495 -0.485,1.065 -0.784,1.709c-0.299,0.644 -0.607,1.326 -0.925,2.045c-0.317,0.719 -0.611,1.391 -0.882,2.017c-0.271,0.625 -0.49,1.167 -0.658,1.624c-0.168,0.458 -0.253,0.752 -0.253,0.883l-0.896,7.9l-2.381,-0.028l0.952,-1.429l-2.437,-2.829l2.241,-2.914l-2.577,-2.521l1.345,-2.465l-3.446,-1.569l0.869,-2.465Zm2.185,8.768l-0.309,-0.308l-0.308,0.308l0.308,0.308l0.309,-0.308Zm-0.169,5.603l-0.308,-0.308l-0.308,0.308l0.308,0.308l0.308,-0.308Zm-1.792,-9.581l-0.309,-0.308l-0.308,0.308l0.308,0.308l0.309,-0.308Zm-1.709,-4.034l-0.308,-0.308l-0.308,0.308l0.308,0.309l0.308,-0.309Zm-3.082,-2.017l2.269,0.056l1.681,1.429l-0.868,2.465l3.445,1.569l-1.344,2.493l2.549,2.157l-2.241,2.914l2.437,2.829l-1.008,1.541l-2.774,-0.056c0.038,-1.345 0.028,-2.545 -0.028,-3.6c-0.056,-1.055 -0.158,-2.031 -0.308,-2.928c-0.149,-0.896 -0.345,-1.741 -0.588,-2.535c-0.243,-0.793 -0.523,-1.61 -0.84,-2.451c-0.318,-0.84 -0.677,-1.732 -1.079,-2.675c-0.401,-0.943 -0.836,-2.012 -1.303,-3.208Z" style="fill:#dfe002;fill-rule:nonzero;"/><defs><linearGradient id="_Linear1" x1="0" y1="0" x2="1" y2="0" gradientUnits="userSpaceOnUse" gradientTransform="matrix(154.273,-62.1234,62.1234,154.273,-8.4059,49.3242)"><stop offset="0" style="stop-color:#773a0e;stop-opacity:1"/><stop offset="0.48" style="stop-color:#823f10;stop-opacity:1"/><stop offset="1" style="stop-color:#864110;stop-opacity:1"/></linearGradient></defs></svg>