<?xml version="1.0" encoding="UTF-8" standalone="no"?>
<!DOCTYPE svg PUBLIC "-//W3C//DTD SVG 1.1//EN" "http://www.w3.org/Graphics/SVG/1.1/DTD/svg11.dtd">
<svg width="100%" height="100%" viewBox="0 0 41 14" version="1.1" xmlns="http://www.w3.org/2000/svg" xmlns:xlink="http://www.w3.org/1999/xlink" xml:space="preserve" xmlns:serif="http://www.serif.com/" style="fill-rule:evenodd;clip-rule:evenodd;stroke-linejoin:round;stroke-miterlimit:1.41421;">
    <g transform="matrix(1,0,0,1,-170.922,-39.7794)">
        <path d="M211,40.748C211,40.748 211.302,39.993 208.779,40.026C207.019,40.048 205.259,40.057 203.5,40.066C200.31,40.083 197.053,39.783 193.864,39.78C190.288,39.775 187.175,39.842 183.622,39.908C183.483,39.911 182.981,40.041 182.842,40.043C182.539,40.048 182.144,39.899 181.841,39.903C180.444,39.925 179.048,39.945 177.651,39.962C176.768,39.973 175.892,40.137 175.009,40.143C173.854,40.152 172.693,40.041 171.535,40.009C171.033,39.995 170.963,40.544 170.953,40.804C170.931,41.32 170.923,42.284 170.922,43.452C170.922,43.499 171.396,43.955 171.396,43.955C171.396,43.955 170.923,44.316 170.923,44.357C170.924,44.759 171.022,45.139 171.024,45.563C171.026,45.889 170.932,46.257 170.934,46.588C170.937,47.004 171.068,47.432 171.072,47.841C171.074,48.118 170.949,48.38 170.951,48.649C170.954,48.993 170.958,49.329 170.961,49.651C170.964,49.944 170.967,50.225 170.97,50.492C170.973,50.81 170.977,51.107 170.98,51.378C170.996,52.782 171.814,53 171.814,53C173.422,52.927 175.111,53.333 176.64,52.831C177.502,52.547 178.355,52.509 179.195,52.776C180.163,53.084 181.287,52.644 182.285,52.76C185.802,53.168 189.391,53.226 193.012,53.169C193.351,53.163 193.715,52.607 194.055,52.599C194.405,52.592 194.732,53.134 195.083,53.125C198.616,53.035 202.103,52.681 205.643,52.674C207.411,52.671 209.244,52.902 211,53L211,51.959C210.896,50.498 210.99,48.916 210.782,47.524C210.592,46.256 210.837,44.932 211,43.57L211,40.748Z" style="fill:url(#_Linear1);"/>
    </g>
    <g transform="matrix(1,0,0,1,-170.922,-39.7794)">
        <path d="M170.951,48.649C170.954,48.993 173.331,48.299 173.331,48.299C173.331,48.299 171.07,47.622 171.072,47.841C171.074,48.118 170.949,48.38 170.951,48.649Z" style="fill:rgb(114,53,9);"/>
    </g>
    <g transform="matrix(1,0,0,1,-170.922,-39.7794)">
        <path d="M171.024,45.563C171.026,45.889 178.495,44.882 178.495,44.882L175.275,44.147L171.396,43.955C171.396,43.955 170.923,44.316 170.923,44.357C170.924,44.759 171.022,45.139 171.024,45.563Z" style="fill:rgb(114,53,9);"/>
    </g>
    <g transform="matrix(1,0,0,1,-170.922,-39.7794)">
        <path d="M211,43.57L205.936,44.629L204.18,46.282C204.18,46.282 204.202,45.741 207.322,46.46C209.31,46.917 210.863,48.066 210.782,47.524C210.592,46.256 210.837,44.932 211,43.57Z" style="fill:rgb(114,53,9);"/>
    </g>
    <g transform="matrix(1.15788,0,0,1.15788,-3.99129,0.170414)">
        <text x="11.368px" y="8.492px" style="font-family:'MexicanTequila-Regular', 'Mexican Tequila';font-size:8.165px;fill:rgb(223,224,0);">PLAY</text>
    </g>
    <defs>
        <linearGradient id="_Linear1" x1="0" y1="0" x2="1" y2="0" gradientUnits="userSpaceOnUse" gradientTransform="matrix(49.3672,-19.8795,19.8795,49.3672,168.233,55.5631)"><stop offset="0" style="stop-color:rgb(119,58,14);stop-opacity:1"/><stop offset="0.48" style="stop-color:rgb(130,63,16);stop-opacity:1"/><stop offset="1" style="stop-color:rgb(134,65,16);stop-opacity:1"/></linearGradient>
    </defs>
</svg>
