<?xml version="1.0" encoding="UTF-8" standalone="no"?>
<!DOCTYPE svg PUBLIC "-//W3C//DTD SVG 1.1//EN" "http://www.w3.org/Graphics/SVG/1.1/DTD/svg11.dtd">
<svg width="100%" height="100%" viewBox="0 0 126 42" version="1.1" xmlns="http://www.w3.org/2000/svg" xmlns:xlink="http://www.w3.org/1999/xlink" xml:space="preserve" xmlns:serif="http://www.serif.com/" style="fill-rule:evenodd;clip-rule:evenodd;stroke-linejoin:round;stroke-miterlimit:1.41421;">
    <path d="M125.242,3.028C125.242,3.028 126.186,0.669 118.301,0.77C112.802,0.84 107.303,0.868 101.803,0.897C91.835,0.949 81.659,0.013 71.691,0.001C60.517,-0.013 50.79,0.196 39.685,0.402C39.252,0.41 37.683,0.818 37.249,0.825C36.301,0.84 35.067,0.372 34.119,0.387C29.756,0.454 25.392,0.519 21.025,0.572C18.268,0.605 15.531,1.117 12.77,1.137C9.161,1.165 5.533,0.817 1.913,0.716C0.345,0.673 0.128,2.39 0.094,3.202C0.028,4.816 0.002,7.826 0,11.476C0,11.623 1.479,13.048 1.479,13.048C1.479,13.048 0.003,14.178 0.003,14.306C0.006,15.563 0.311,16.749 0.318,18.073C0.323,19.094 0.03,20.243 0.037,21.278C0.046,22.576 0.455,23.915 0.466,25.194C0.473,26.06 0.082,26.877 0.09,27.717C0.1,28.793 0.11,29.843 0.12,30.85C0.129,31.764 0.139,32.643 0.148,33.477C0.159,34.47 0.169,35.399 0.179,36.245C0.231,40.635 2.785,41.314 2.785,41.314C7.811,41.088 13.089,42.356 17.867,40.785C20.561,39.899 23.225,39.78 25.853,40.615C28.876,41.576 32.388,40.202 35.507,40.564C46.497,41.839 57.714,42.02 69.029,41.842C70.089,41.825 71.226,40.085 72.288,40.063C73.384,40.04 74.404,41.734 75.5,41.706C86.541,41.425 97.439,40.318 108.501,40.296C114.028,40.285 119.755,41.008 125.242,41.314L125.242,38.061C124.916,33.494 125.212,28.552 124.561,24.202C123.967,20.239 124.733,16.103 125.242,11.845L125.242,3.028Z" style="fill:url(#_Linear1);"/>
    <path d="M0.09,27.717C0.1,28.793 7.526,26.624 7.526,26.624C7.526,26.624 0.46,24.508 0.466,25.194C0.473,26.06 0.082,26.877 0.09,27.717Z" style="fill:rgb(114,53,9);"/>
    <path d="M0.318,18.073C0.323,19.094 23.664,15.946 23.664,15.946L13.603,13.648L1.479,13.048C1.479,13.048 0.003,14.178 0.003,14.306C0.006,15.563 0.311,16.749 0.318,18.073Z" style="fill:rgb(114,53,9);"/>
    <path d="M125.242,11.845L109.418,15.156L103.931,20.321C103.931,20.321 103.998,18.631 113.749,20.875C119.96,22.305 124.814,25.895 124.561,24.202C123.967,20.239 124.733,16.103 125.242,11.845Z" style="fill:rgb(114,53,9);"/>
    <g transform="matrix(1,0,0,1,-3.05556,0.0584317)">
        <text x="26px" y="30.193px" style="font-family:'MexicanTequila-Regular', 'Mexican Tequila';font-size:26.357px;fill:rgb(223,224,2);">Start</text>
    </g>
    <defs>
        <linearGradient id="_Linear1" x1="0" y1="0" x2="1" y2="0" gradientUnits="userSpaceOnUse" gradientTransform="matrix(154.273,-62.1234,62.1234,154.273,-8.4059,49.3242)"><stop offset="0" style="stop-color:rgb(119,58,14);stop-opacity:1"/><stop offset="0.48" style="stop-color:rgb(130,63,16);stop-opacity:1"/><stop offset="1" style="stop-color:rgb(134,65,16);stop-opacity:1"/></linearGradient>
    </defs>
</svg>
