<?xml version="1.0" encoding="UTF-8" standalone="no"?>
<!DOCTYPE svg PUBLIC "-//W3C//DTD SVG 1.1//EN" "http://www.w3.org/Graphics/SVG/1.1/DTD/svg11.dtd">
<svg width="100%" height="100%" viewBox="0 0 126 42" version="1.1" xmlns="http://www.w3.org/2000/svg" xmlns:xlink="http://www.w3.org/1999/xlink" xml:space="preserve" xmlns:serif="http://www.serif.com/" style="fill-rule:evenodd;clip-rule:evenodd;stroke-linejoin:round;stroke-miterlimit:1.41421;">
    <path d="M125.242,3.028C125.242,3.028 126.186,0.669 118.301,0.77C112.802,0.84 107.303,0.868 101.803,0.897C91.835,0.949 81.659,0.013 71.691,0.001C60.517,-0.013 50.79,0.196 39.685,0.402C39.252,0.41 37.683,0.818 37.249,0.825C36.301,0.84 35.067,0.372 34.119,0.387C29.756,0.454 25.392,0.519 21.025,0.572C18.268,0.605 15.531,1.117 12.77,1.137C9.161,1.165 5.533,0.817 1.913,0.716C0.345,0.673 0.128,2.39 0.094,3.202C0.028,4.816 0.002,7.826 0,11.476C0,11.623 1.479,13.048 1.479,13.048C1.479,13.048 0.003,14.178 0.003,14.306C0.006,15.563 0.311,16.749 0.318,18.073C0.323,19.094 0.03,20.243 0.037,21.278C0.046,22.576 0.455,23.915 0.466,25.194C0.473,26.06 0.082,26.877 0.09,27.717C0.1,28.793 0.11,29.843 0.12,30.85C0.129,31.764 0.139,32.643 0.148,33.477C0.159,34.47 0.169,35.399 0.179,36.245C0.231,40.635 2.785,41.314 2.785,41.314C7.811,41.088 13.089,42.356 17.867,40.785C20.561,39.899 23.225,39.78 25.853,40.615C28.876,41.576 32.388,40.202 35.507,40.564C46.497,41.839 57.714,42.02 69.029,41.842C70.089,41.825 71.226,40.085 72.288,40.063C73.384,40.04 74.404,41.734 75.5,41.706C86.541,41.425 97.439,40.318 108.501,40.296C114.028,40.285 119.755,41.008 125.242,41.314L125.242,38.061C124.916,33.494 125.212,28.552 124.561,24.202C123.967,20.239 124.733,16.103 125.242,11.845L125.242,3.028Z" style="fill:url(#_Linear1);"/>
    <path d="M0.09,27.717C0.1,28.793 7.526,26.624 7.526,26.624C7.526,26.624 0.46,24.508 0.466,25.194C0.473,26.06 0.082,26.877 0.09,27.717Z" style="fill:rgb(114,53,9);"/>
    <path d="M0.318,18.073C0.323,19.094 23.664,15.946 23.664,15.946L13.603,13.648L1.479,13.048C1.479,13.048 0.003,14.178 0.003,14.306C0.006,15.563 0.311,16.749 0.318,18.073Z" style="fill:rgb(114,53,9);"/>
    <path d="M125.242,11.845L109.418,15.156L103.931,20.321C103.931,20.321 103.998,18.631 113.749,20.875C119.96,22.305 124.814,25.895 124.561,24.202C123.967,20.239 124.733,16.103 125.242,11.845Z" style="fill:rgb(114,53,9);"/>
    <g transform="matrix(1,0,0,1,22.9444,30.2514)">
        <path d="M7.591,-12.52L14.734,-12.915C14.734,-13.53 14.641,-14.141 14.457,-14.747C14.272,-15.353 14.004,-15.911 13.653,-16.42C14.795,-15.313 15.419,-13.952 15.524,-12.335L7.617,-12.203L7.591,-12.52ZM12.414,-5.008L12.124,-5.298L11.834,-5.008L12.124,-4.718L12.414,-5.008ZM12.203,-9.04L11.913,-8.751L12.203,-8.461L12.493,-8.751L12.203,-9.04ZM7.301,-15.392L7.011,-15.682L6.721,-15.392L7.011,-15.103L7.301,-15.392ZM7.38,-4.033L7.09,-4.323L6.8,-4.033L7.09,-3.743L7.38,-4.033ZM8.171,-9.146L7.881,-9.436L7.591,-9.146L7.881,-8.856L8.171,-9.146ZM7.195,-12.915L7.248,-11.834L8.698,-11.887C9.576,-11.887 10.371,-11.826 11.083,-11.703C11.795,-11.58 12.401,-11.347 12.902,-11.004C13.403,-10.661 13.789,-10.183 14.061,-9.568C14.334,-8.953 14.47,-8.162 14.47,-7.195C14.47,-5.878 14.215,-4.85 13.706,-4.112C13.196,-3.374 12.533,-2.829 11.716,-2.478C10.899,-2.126 9.985,-1.915 8.975,-1.845C7.964,-1.775 6.958,-1.74 5.957,-1.74C5.535,-1.74 5.083,-1.783 4.599,-1.871C4.116,-1.959 3.69,-2.1 3.321,-2.293L4.323,-3.795L3.163,-6.299L9.12,-6.853L9.067,-7.696C8.557,-7.679 8.043,-7.648 7.525,-7.604C7.007,-7.56 6.484,-7.538 5.957,-7.538C5.5,-7.538 5.043,-7.573 4.586,-7.644C4.129,-7.714 3.699,-7.854 3.295,-8.065L4.533,-9.462L2.293,-12.23L4.033,-14.417L2.319,-16.895L2.293,-16.895C2.68,-17.211 3.11,-17.457 3.585,-17.633C4.059,-17.809 4.547,-17.94 5.047,-18.028C5.548,-18.116 6.053,-18.169 6.563,-18.186C7.072,-18.204 7.564,-18.213 8.039,-18.213C8.917,-18.213 9.726,-18.147 10.464,-18.015C11.202,-17.883 11.847,-17.642 12.401,-17.29C12.954,-16.939 13.398,-16.447 13.732,-15.814C14.066,-15.182 14.277,-14.365 14.365,-13.363L7.195,-12.915ZM15.182,-6.932C15.182,-7.529 15.133,-8.114 15.037,-8.685C14.94,-9.256 14.707,-9.796 14.338,-10.306C15.023,-9.761 15.445,-9.12 15.603,-8.382C15.761,-7.644 15.841,-6.862 15.841,-6.036C15.841,-5.104 15.718,-4.318 15.472,-3.677C15.226,-3.035 14.883,-2.504 14.444,-2.082C14.004,-1.66 13.495,-1.335 12.915,-1.107C12.335,-0.879 11.707,-0.707 11.03,-0.593C10.354,-0.479 9.651,-0.413 8.922,-0.395C8.193,-0.378 7.468,-0.369 6.747,-0.369C6.291,-0.369 5.834,-0.426 5.377,-0.54C4.92,-0.655 4.481,-0.813 4.059,-1.015C3.637,-1.217 3.242,-1.463 2.873,-1.753C2.504,-2.043 2.188,-2.372 1.924,-2.741C2.434,-2.284 3.057,-1.924 3.795,-1.66C4.533,-1.397 5.245,-1.265 5.93,-1.265C7.002,-1.265 8.087,-1.296 9.185,-1.357C10.284,-1.419 11.276,-1.63 12.164,-1.99C13.051,-2.35 13.776,-2.912 14.338,-3.677C14.9,-4.441 15.182,-5.526 15.182,-6.932ZM0.553,-6.168L2.583,-6.273L3.664,-3.927L2.767,-2.583C2.434,-2.671 2.139,-2.851 1.885,-3.123C1.63,-3.396 1.41,-3.708 1.226,-4.059C1.041,-4.41 0.896,-4.775 0.791,-5.153C0.685,-5.531 0.606,-5.869 0.553,-6.168ZM1.713,-4.797L2.003,-4.507L2.293,-4.797L2.003,-5.087L1.713,-4.797ZM2.478,-14.523C2.442,-14.593 2.407,-14.659 2.372,-14.72C2.337,-14.782 2.275,-14.813 2.188,-14.813L1.924,-14.523L2.188,-14.233C2.275,-14.233 2.337,-14.264 2.372,-14.325C2.407,-14.387 2.442,-14.452 2.478,-14.523ZM2.662,-9.699L2.372,-9.989L2.082,-9.699L2.372,-9.409L2.662,-9.699ZM3.426,-14.47L1.66,-12.282L3.927,-9.515L2.847,-8.302C2.109,-8.759 1.494,-9.383 1.002,-10.174C0.51,-10.965 0.264,-11.799 0.264,-12.678C0.264,-13.416 0.404,-14.127 0.685,-14.813C0.966,-15.498 1.388,-16.087 1.95,-16.579L3.426,-14.47ZM10.991,-15.761L10.701,-16.051L10.411,-15.761L10.701,-15.472L10.991,-15.761Z" style="fill:rgb(223,224,2);fill-rule:nonzero;"/>
        <path d="M27.016,-0.343L20.954,-0.817L20.717,-1.16C21.648,-1.142 22.57,-1.103 23.484,-1.041C24.398,-0.98 25.32,-0.922 26.252,-0.87L26.225,-11.966L30.047,-12.019L30.126,-17.686L30.653,-17.106L30.811,-11.228L26.779,-11.413L27.016,-0.343ZM29.045,-15.498L28.755,-15.788L28.466,-15.498L28.755,-15.208L29.045,-15.498ZM26.12,-15.261C26.085,-15.331 26.05,-15.397 26.014,-15.458C25.979,-15.52 25.918,-15.551 25.83,-15.551L25.54,-15.261L25.83,-14.971C25.918,-14.971 25.979,-15.002 26.014,-15.063C26.05,-15.125 26.085,-15.19 26.12,-15.261ZM21.797,-1.608L23.879,-4.349L22.403,-7.617L24.459,-9.647C24.108,-10.121 23.765,-10.6 23.431,-11.083C23.098,-11.566 22.755,-12.054 22.403,-12.546L24.301,-14.944L22.509,-17.896L29.625,-17.923L29.52,-12.467L25.856,-12.361L25.645,-1.529L25.435,-1.529L21.797,-1.608ZM22.588,-10.016L22.298,-10.306L22.008,-10.016L22.298,-9.726L22.588,-10.016ZM22.377,-15.472L22.087,-15.761L21.797,-15.472L22.087,-15.182L22.377,-15.472ZM22.14,-5.957L21.85,-5.667L22.14,-5.377L22.43,-5.667L22.14,-5.957ZM19.9,-14.338L19.61,-14.628L19.32,-14.338L19.61,-14.048L19.9,-14.338ZM18.318,-15.63L18.028,-15.92L17.738,-15.63L18.028,-15.34L18.318,-15.63ZM16.499,-12.572L16.605,-18.002L21.955,-17.896L23.695,-15.05L21.797,-12.651C22.096,-12.124 22.425,-11.628 22.786,-11.162C23.146,-10.697 23.502,-10.218 23.853,-9.726L21.797,-7.723L23.247,-4.533L21.033,-1.634L20.189,-1.634L20.4,-12.493L16.499,-12.572ZM16.948,-12.23L20.031,-12.045L20.031,-11.492L17.29,-11.834L16.948,-12.23Z" style="fill:rgb(223,224,2);fill-rule:nonzero;"/>
        <path d="M43.015,-1.028L47.917,-1.028L46.204,-17.079L47.232,-15.92L48.312,-0.316L43.674,-0.422L43.015,-1.028ZM38.903,-7.327L39.746,-10.806L40.089,-9.699L38.903,-7.327ZM37.611,-3.189L41.723,-3.242L37.928,-2.767L37.822,-0.422C37.541,-0.439 37.133,-0.452 36.597,-0.461C36.061,-0.47 35.507,-0.488 34.936,-0.514C34.365,-0.54 33.829,-0.593 33.328,-0.672C32.828,-0.751 32.481,-0.861 32.287,-1.002L37.163,-0.949L37.611,-3.189ZM39.694,-12.388L38.218,-6.853L41.17,-6.853L39.694,-12.388ZM35.292,-7.222L37.717,-9.014L36.241,-12.414L38.56,-14.628L37.48,-17.712L45.519,-17.712L47.574,-1.423L42.619,-1.423L42.039,-3.585L37.348,-3.585L36.794,-1.423L33.974,-1.423L36.135,-3.532L35.292,-7.222ZM37.137,-9.199L34.712,-7.433L35.529,-3.822L33.104,-1.423L31.338,-1.423L34.633,-17.712L36.979,-17.712L37.98,-14.839L35.661,-12.599L37.137,-9.199ZM41.038,-16.051L40.748,-16.341L40.458,-16.078L40.748,-15.761L41.038,-16.051ZM43.252,-12.361L42.962,-12.651L42.672,-12.388L42.962,-12.072L43.252,-12.361ZM44.253,-8.777L43.963,-9.067L43.674,-8.803L43.963,-8.487L44.253,-8.777ZM45.281,-3.795L44.991,-4.085L44.701,-3.822L44.991,-3.505L45.281,-3.795ZM39.904,-5.192L39.615,-5.482L39.325,-5.219L39.615,-4.902L39.904,-5.192ZM36.557,-14.971L36.267,-15.261L35.977,-14.997L36.267,-14.681L36.557,-14.971ZM35.213,-9.436L34.923,-9.726L34.633,-9.462L34.923,-9.146L35.213,-9.436ZM34.001,-4.639L33.711,-4.929L33.421,-4.665L33.711,-4.349L34.001,-4.639Z" style="fill:rgb(223,224,2);fill-rule:nonzero;"/>
        <path d="M57.432,-1.212L63.52,-1.529L60.937,-7.327C61.781,-7.89 62.449,-8.623 62.941,-9.528C63.433,-10.433 63.679,-11.395 63.679,-12.414C63.679,-13.504 63.397,-14.514 62.835,-15.445C63.046,-15.269 63.235,-15.028 63.402,-14.72C63.569,-14.413 63.709,-14.083 63.823,-13.732C63.938,-13.381 64.021,-13.029 64.074,-12.678C64.127,-12.326 64.153,-12.019 64.153,-11.755C64.153,-10.771 63.933,-9.84 63.494,-8.961C63.055,-8.083 62.44,-7.354 61.649,-6.774L64.285,-0.764L57.775,-0.738L57.432,-1.212ZM55.481,-1.054L55.402,-5.535L55.771,-5.535C55.877,-5.394 55.952,-5.153 55.995,-4.81C56.039,-4.468 56.075,-4.094 56.101,-3.69C56.127,-3.286 56.14,-2.895 56.14,-2.517L56.14,-0.29L50.447,-0.58L50.131,-0.87C51.027,-0.94 51.919,-0.98 52.806,-0.988C53.694,-0.997 54.585,-1.019 55.481,-1.054ZM54.823,-12.546L58.17,-12.625L55.192,-12.256L54.849,-11.992L54.823,-12.546ZM60.489,-10.965L60.199,-10.701L60.489,-10.385L60.779,-10.648L60.489,-10.965ZM60.094,-15.076L59.778,-14.786L60.12,-14.496L60.358,-14.76L60.094,-15.076ZM60.199,-3.716L59.883,-4.033L59.62,-3.743L59.883,-3.453L60.199,-3.716ZM58.565,-6.721L58.275,-7.037L57.985,-6.721L58.275,-6.457L58.565,-6.721ZM56.009,-9.489L55.745,-9.805L55.429,-9.515L55.719,-9.225L56.009,-9.489ZM58.539,-12.862L54.506,-12.757L54.533,-11.676L58.565,-11.782L58.539,-12.862ZM55.534,-15.208L55.244,-15.498L54.954,-15.234L55.244,-14.918L55.534,-15.208ZM53.399,-9.673L51.185,-12.493C51.238,-12.564 51.365,-12.73 51.567,-12.994C51.77,-13.258 51.976,-13.53 52.187,-13.811C52.398,-14.092 52.582,-14.351 52.74,-14.589C52.898,-14.826 52.969,-14.962 52.951,-14.997L51.054,-17.817C52.161,-17.852 53.267,-17.888 54.374,-17.923C55.481,-17.958 56.588,-17.975 57.695,-17.975C58.433,-17.975 59.132,-17.822 59.791,-17.514C60.45,-17.207 61.025,-16.798 61.517,-16.289C62.009,-15.779 62.4,-15.19 62.69,-14.523C62.98,-13.855 63.125,-13.152 63.125,-12.414C63.125,-11.395 62.861,-10.446 62.334,-9.568C61.807,-8.689 61.096,-8.004 60.199,-7.512L62.624,-2.082L57.063,-1.713C56.782,-2.574 56.505,-3.431 56.233,-4.283C55.96,-5.135 55.631,-5.974 55.244,-6.8L54.77,-6.8C54.823,-5.922 54.853,-5.056 54.862,-4.204C54.871,-3.352 54.893,-2.486 54.928,-1.608L51.08,-1.529L53.057,-4.375L51.423,-7.564L53.399,-9.673ZM51.502,-9.963L51.212,-10.253L50.922,-9.963L51.212,-9.673L51.502,-9.963ZM51.423,-15.129L51.133,-15.392L50.843,-15.129C50.843,-15.041 50.873,-14.98 50.935,-14.944C50.996,-14.909 51.062,-14.874 51.133,-14.839C51.203,-14.874 51.269,-14.909 51.33,-14.944C51.392,-14.98 51.423,-15.041 51.423,-15.129ZM51.528,-5.588C51.493,-5.658 51.458,-5.724 51.423,-5.785C51.387,-5.847 51.326,-5.878 51.238,-5.878C51.168,-5.878 51.111,-5.847 51.067,-5.785C51.023,-5.724 50.992,-5.658 50.974,-5.588L51.212,-5.298C51.3,-5.298 51.365,-5.329 51.409,-5.39C51.453,-5.452 51.493,-5.517 51.528,-5.588ZM50.579,-12.546L52.767,-9.752L50.816,-7.644L52.371,-4.507L50.342,-1.502L49.446,-1.476L49.05,-17.765L50.5,-17.791L52.345,-14.997L50.579,-12.546Z" style="fill:rgb(223,224,2);fill-rule:nonzero;"/>
        <path d="M75.328,-0.343L69.266,-0.817L69.029,-1.16C69.96,-1.142 70.883,-1.103 71.796,-1.041C72.71,-0.98 73.633,-0.922 74.564,-0.87L74.538,-11.966L78.359,-12.019L78.438,-17.686L78.966,-17.106L79.124,-11.228L75.091,-11.413L75.328,-0.343ZM77.358,-15.498L77.068,-15.788L76.778,-15.498L77.068,-15.208L77.358,-15.498ZM74.432,-15.261C74.397,-15.331 74.362,-15.397 74.327,-15.458C74.292,-15.52 74.23,-15.551 74.142,-15.551L73.852,-15.261L74.142,-14.971C74.23,-14.971 74.292,-15.002 74.327,-15.063C74.362,-15.125 74.397,-15.19 74.432,-15.261ZM70.11,-1.608L72.192,-4.349L70.716,-7.617L72.772,-9.647C72.42,-10.121 72.078,-10.6 71.744,-11.083C71.41,-11.566 71.067,-12.054 70.716,-12.546L72.614,-14.944L70.821,-17.896L77.938,-17.923L77.832,-12.467L74.169,-12.361L73.958,-1.529L73.747,-1.529L70.11,-1.608ZM70.9,-10.016L70.61,-10.306L70.32,-10.016L70.61,-9.726L70.9,-10.016ZM70.689,-15.472L70.4,-15.761L70.11,-15.472L70.4,-15.182L70.689,-15.472ZM70.452,-5.957L70.162,-5.667L70.452,-5.377L70.742,-5.667L70.452,-5.957ZM68.212,-14.338L67.922,-14.628L67.632,-14.338L67.922,-14.048L68.212,-14.338ZM66.63,-15.63L66.341,-15.92L66.051,-15.63L66.341,-15.34L66.63,-15.63ZM64.812,-12.572L64.917,-18.002L70.268,-17.896L72.007,-15.05L70.11,-12.651C70.408,-12.124 70.738,-11.628 71.098,-11.162C71.458,-10.697 71.814,-10.218 72.165,-9.726L70.11,-7.723L71.559,-4.533L69.345,-1.634L68.502,-1.634L68.713,-12.493L64.812,-12.572ZM65.26,-12.23L68.344,-12.045L68.344,-11.492L65.603,-11.834L65.26,-12.23Z" style="fill:rgb(223,224,2);fill-rule:nonzero;"/>
    </g>
    <defs>
        <linearGradient id="_Linear1" x1="0" y1="0" x2="1" y2="0" gradientUnits="userSpaceOnUse" gradientTransform="matrix(154.273,-62.1234,62.1234,154.273,-8.4059,49.3242)"><stop offset="0" style="stop-color:rgb(119,58,14);stop-opacity:1"/><stop offset="0.48" style="stop-color:rgb(130,63,16);stop-opacity:1"/><stop offset="1" style="stop-color:rgb(134,65,16);stop-opacity:1"/></linearGradient>
    </defs>
</svg>
